<svg xmlns="http://www.w3.org/2000/svg" xmlns:xlink="http://www.w3.org/1999/xlink" width="500" zoomAndPan="magnify" viewBox="0 0 375 374.999991" height="500" preserveAspectRatio="xMidYMid meet" version="1.0"><defs><g/><clipPath id="9c9ec81bf3"><path d="M 0 0.0703125 L 375 0.0703125 L 375 149.796875 L 0 149.796875 Z M 0 0.0703125 " clip-rule="nonzero"/></clipPath><clipPath id="ae933d8945"><path d="M 0 292.742188 L 375 292.742188 L 375 374.449219 L 0 374.449219 Z M 0 292.742188 " clip-rule="nonzero"/></clipPath></defs><g fill="#5c0601" fill-opacity="1"><g transform="translate(28.523943, 286.676228)"><g><path d="M 27.003906 0 L 27.003906 -7.6875 L 13.878906 -7.6875 L 13.878906 -65.074219 L 24.378906 -65.074219 L 24.378906 -72.761719 L 13.878906 -72.761719 L 13.878906 -123.585938 L 27.003906 -123.585938 L 27.003906 -131.273438 L 5.625 -131.273438 L 5.625 0 Z M 27.003906 0 "/></g></g></g><g fill="#5c0601" fill-opacity="1"><g transform="translate(57.778754, 286.676228)"><g><path d="M 10.125 0 L 12.316406 -41.070312 L 20.878906 -41.070312 L 23.066406 0 L 31.503906 0 L 22.066406 -131.273438 L 11.128906 -131.273438 L 1.6875 0 Z M 14.253906 -81.828125 C 14.753906 -92.328125 15.128906 -100.082031 15.691406 -111.019531 L 17.566406 -111.019531 C 18.128906 -100.082031 18.503906 -91.765625 18.941406 -81.828125 L 20.503906 -48.382812 L 12.691406 -48.382812 Z M 14.253906 -81.828125 "/></g></g></g><g fill="#5c0601" fill-opacity="1"><g transform="translate(90.971704, 286.676228)"><g><path d="M 18.191406 0 L 18.191406 -123.585938 L 27.191406 -123.585938 L 27.191406 -131.273438 L 0.9375 -131.273438 L 0.9375 -123.585938 L 9.9375 -123.585938 L 9.9375 0 Z M 18.191406 0 "/></g></g></g><g fill="#5c0601" fill-opacity="1"><g transform="translate(119.101322, 286.676228)"><g/></g></g><g fill="#5c0601" fill-opacity="1"><g transform="translate(136.604194, 286.676228)"><g><path d="M 18.003906 0 C 28.316406 0 33.382812 -5.0625 33.382812 -15.941406 L 33.382812 -55.699219 C 33.382812 -62.824219 29.816406 -66.386719 24.378906 -67.699219 L 24.378906 -69.574219 C 29.816406 -70.886719 33.382812 -74.449219 33.382812 -81.578125 L 33.382812 -115.332031 C 33.382812 -126.210938 28.316406 -131.273438 18.003906 -131.273438 L 5.625 -131.273438 L 5.625 0 Z M 13.878906 -123.585938 L 18.003906 -123.585938 C 22.878906 -123.585938 25.128906 -121.335938 25.128906 -115.332031 L 25.128906 -81.578125 C 25.128906 -74.824219 22.878906 -72.574219 18.003906 -72.574219 L 13.878906 -72.574219 Z M 13.878906 -64.699219 L 18.003906 -64.699219 C 22.878906 -64.699219 25.128906 -62.449219 25.128906 -55.699219 L 25.128906 -15.941406 C 25.128906 -9.9375 22.878906 -7.6875 18.003906 -7.6875 L 13.878906 -7.6875 Z M 13.878906 -64.699219 "/></g></g></g><g fill="#5c0601" fill-opacity="1"><g transform="translate(175.298064, 286.676228)"><g><path d="M 5.4375 -14.253906 C 5.4375 -4.3125 10.5 0.75 19.316406 0.75 C 28.128906 0.75 33.195312 -4.3125 33.195312 -14.253906 L 33.195312 -131.273438 L 24.941406 -131.273438 L 24.941406 -14.253906 C 24.941406 -9.1875 22.691406 -6.9375 19.316406 -6.9375 C 15.941406 -6.9375 13.691406 -9.1875 13.691406 -14.253906 L 13.691406 -131.273438 L 5.4375 -131.273438 Z M 5.4375 -14.253906 "/></g></g></g><g fill="#5c0601" fill-opacity="1"><g transform="translate(213.929414, 286.676228)"><g><path d="M 13.878906 0 L 13.878906 -61.574219 L 18.003906 -61.574219 C 22.878906 -61.574219 25.128906 -59.324219 25.128906 -52.570312 L 25.128906 -17.628906 C 25.128906 -9.5625 25.691406 -3.75 27.753906 0 L 36.382812 0 C 34.320312 -3.75 33.382812 -9.375 33.382812 -17.628906 L 33.382812 -52.570312 C 33.382812 -59.699219 29.816406 -63.261719 24.378906 -64.574219 L 24.378906 -66.449219 C 29.816406 -67.761719 33.382812 -71.324219 33.382812 -78.453125 L 33.382812 -115.332031 C 33.382812 -126.210938 28.316406 -131.273438 18.003906 -131.273438 L 5.625 -131.273438 L 5.625 0 Z M 13.878906 -123.585938 L 18.003906 -123.585938 C 22.878906 -123.585938 25.128906 -121.335938 25.128906 -115.332031 L 25.128906 -78.453125 C 25.128906 -71.699219 22.878906 -69.449219 18.003906 -69.449219 L 13.878906 -69.449219 Z M 13.878906 -123.585938 "/></g></g></g><g fill="#5c0601" fill-opacity="1"><g transform="translate(252.37323, 286.676228)"><g><path d="M 5.25 -12.941406 C 5.25 -3.1875 9.1875 0.75 14.628906 0.75 C 19.691406 0.75 22.316406 -1.875 23.253906 -6.75 L 25.128906 -6.75 L 27.378906 0 L 33.007812 0 L 33.007812 -72.761719 L 18.941406 -72.761719 L 18.941406 -65.074219 L 24.753906 -65.074219 L 24.753906 -15.003906 C 24.753906 -9.5625 22.128906 -6.9375 18.753906 -6.9375 C 15.566406 -6.9375 13.503906 -9 13.503906 -14.066406 L 13.503906 -117.019531 C 13.503906 -122.085938 15.753906 -124.335938 19.128906 -124.335938 C 22.503906 -124.335938 24.753906 -122.085938 24.753906 -117.019531 L 24.753906 -82.515625 L 33.007812 -83.453125 L 33.007812 -117.019531 C 33.007812 -126.960938 27.941406 -132.023438 19.128906 -132.023438 C 10.3125 -132.023438 5.25 -126.960938 5.25 -117.019531 Z M 5.25 -12.941406 "/></g></g></g><g fill="#5c0601" fill-opacity="1"><g transform="translate(290.629509, 286.676228)"><g><path d="M 27.003906 0 L 27.003906 -7.6875 L 13.878906 -7.6875 L 13.878906 -65.074219 L 24.378906 -65.074219 L 24.378906 -72.761719 L 13.878906 -72.761719 L 13.878906 -123.585938 L 27.003906 -123.585938 L 27.003906 -131.273438 L 5.625 -131.273438 L 5.625 0 Z M 27.003906 0 "/></g></g></g><g fill="#5c0601" fill-opacity="1"><g transform="translate(319.88432, 286.676228)"><g><path d="M 13.878906 0 L 13.878906 -61.574219 L 18.003906 -61.574219 C 22.878906 -61.574219 25.128906 -59.324219 25.128906 -52.570312 L 25.128906 -17.628906 C 25.128906 -9.5625 25.691406 -3.75 27.753906 0 L 36.382812 0 C 34.320312 -3.75 33.382812 -9.375 33.382812 -17.628906 L 33.382812 -52.570312 C 33.382812 -59.699219 29.816406 -63.261719 24.378906 -64.574219 L 24.378906 -66.449219 C 29.816406 -67.761719 33.382812 -71.324219 33.382812 -78.453125 L 33.382812 -115.332031 C 33.382812 -126.210938 28.316406 -131.273438 18.003906 -131.273438 L 5.625 -131.273438 L 5.625 0 Z M 13.878906 -123.585938 L 18.003906 -123.585938 C 22.878906 -123.585938 25.128906 -121.335938 25.128906 -115.332031 L 25.128906 -78.453125 C 25.128906 -71.699219 22.878906 -69.449219 18.003906 -69.449219 L 13.878906 -69.449219 Z M 13.878906 -123.585938 "/></g></g></g><g clip-path="url(#9c9ec81bf3)"><path fill="#f9943b" d="M 291.585938 59.4375 C 299.179688 59.4375 299.179688 47.648438 291.585938 47.648438 C 284.007812 47.648438 283.992188 59.4375 291.585938 59.4375 Z M 100.472656 57.613281 C 108.0625 57.613281 108.074219 45.820312 100.472656 45.820312 C 92.890625 45.820312 92.878906 57.613281 100.472656 57.613281 Z M 70.761719 102.429688 C 78.34375 102.429688 78.355469 90.636719 70.761719 90.636719 C 63.171875 90.636719 63.160156 102.429688 70.761719 102.429688 Z M 156.710938 78.457031 C 164.289062 78.457031 164.320312 66.667969 156.710938 66.667969 C 149.132812 66.667969 149.117188 78.457031 156.710938 78.457031 Z M 176.828125 29.714844 C 184.421875 29.714844 184.421875 17.917969 176.828125 17.917969 C 169.25 17.917969 169.234375 29.714844 176.828125 29.714844 Z M 278.332031 104.71875 C 285.925781 104.71875 285.9375 92.925781 278.332031 92.925781 C 270.75 92.925781 270.738281 104.71875 278.332031 104.71875 Z M 240.390625 42.519531 C 247.96875 42.519531 247.984375 30.726562 240.390625 30.726562 C 232.796875 30.726562 232.78125 42.519531 240.390625 42.519531 Z M 193.621094 11.847656 C 99.03125 11.847656 22.082031 59.261719 22.082031 117.546875 L 22.078125 122.613281 C 22.078125 128.496094 26.863281 133.28125 32.742188 133.28125 L 354.511719 133.28125 C 360.382812 133.28125 365.164062 128.496094 365.164062 122.613281 L 365.164062 117.546875 C 365.164062 59.261719 288.210938 11.847656 193.625 11.847656 Z M 354.503906 145.054688 L 32.738281 145.054688 C 20.371094 145.054688 10.304688 134.988281 10.304688 122.613281 L 10.304688 117.546875 C 10.304688 85.644531 29.742188 55.847656 65.027344 33.65625 C 99.46875 11.996094 145.128906 0.0703125 193.621094 0.0703125 C 242.113281 0.0703125 287.777344 11.996094 322.214844 33.65625 C 357.507812 55.847656 376.933594 85.644531 376.933594 117.546875 L 376.933594 122.613281 C 376.933594 134.988281 366.867188 145.054688 354.503906 145.054688 Z M 385.394531 165.382812 C 386.175781 164.777344 385.910156 165.011719 385.042969 165.585938 C 383.804688 166.398438 382.554688 167.175781 381.257812 167.898438 C 377.402344 170.003906 373.195312 171.5625 368.839844 172.269531 C 362.363281 173.332031 355.769531 172.359375 349.867188 169.488281 C 343.1875 166.25 337.992188 160.878906 331.089844 157.933594 C 316.726562 151.78125 299.347656 154.78125 287.644531 165.191406 C 287.511719 165.292969 287.324219 165.425781 287.070312 165.585938 C 285.835938 166.398438 284.585938 167.175781 283.289062 167.898438 C 279.433594 170.003906 275.210938 171.5625 270.867188 172.269531 C 264.394531 173.332031 257.800781 172.359375 251.898438 169.488281 C 245.21875 166.25 240.007812 160.878906 233.121094 157.933594 C 218.757812 151.78125 201.375 154.78125 189.675781 165.191406 C 189.542969 165.292969 189.351562 165.425781 189.101562 165.585938 C 187.867188 166.398438 186.601562 167.175781 185.304688 167.898438 C 181.449219 170.003906 177.242188 171.5625 172.898438 172.269531 C 166.425781 173.332031 159.816406 172.359375 153.914062 169.488281 C 147.234375 166.25 142.039062 160.878906 135.152344 157.933594 C 120.777344 151.78125 103.394531 154.78125 91.707031 165.191406 C 91.570312 165.292969 91.378906 165.425781 91.125 165.585938 C 89.886719 166.398438 88.636719 167.175781 87.332031 167.898438 C 83.480469 170.003906 79.261719 171.5625 74.921875 172.269531 C 68.449219 173.332031 61.84375 172.359375 55.945312 169.488281 C 49.269531 166.25 44.066406 160.878906 37.175781 157.933594 C 22.710938 151.75 5.1875 154.8125 -6.5 165.382812 C -12.136719 170.488281 -3.777344 178.792969 1.839844 173.714844 C 5.414062 170.488281 11.421875 167.765625 16.621094 166.839844 C 31.800781 164.101562 40.601562 175.863281 53.300781 181.175781 C 68.695312 187.609375 86.917969 183.988281 99.8125 173.714844 C 103.390625 170.488281 109.398438 167.765625 114.59375 166.839844 C 129.773438 164.101562 138.582031 175.863281 151.28125 181.175781 C 166.675781 187.609375 184.894531 183.988281 197.785156 173.714844 C 201.363281 170.488281 207.367188 167.765625 212.574219 166.839844 C 227.75 164.101562 236.550781 175.863281 249.25 181.175781 C 264.644531 187.609375 282.863281 183.988281 295.769531 173.714844 C 299.347656 170.488281 305.335938 167.765625 310.546875 166.839844 C 325.734375 164.101562 334.535156 175.863281 347.234375 181.175781 C 362.613281 187.609375 380.847656 183.988281 393.738281 173.714844 C 399.667969 168.988281 391.28125 160.699219 385.394531 165.382812 Z M 5.480469 205.820312 C 0.890625 205.820312 -2.847656 209.558594 -2.847656 214.152344 L -2.847656 221.820312 C -2.847656 226.414062 0.890625 230.152344 5.480469 230.152344 L 381.757812 230.152344 C 386.351562 230.152344 390.089844 226.414062 390.089844 221.820312 L 390.089844 214.152344 C 390.089844 209.558594 386.351562 205.820312 381.757812 205.820312 Z M 381.757812 241.929688 L 5.480469 241.929688 C -5.601562 241.929688 -14.621094 232.917969 -14.621094 221.820312 L -14.621094 214.152344 C -14.621094 203.066406 -5.601562 194.042969 5.480469 194.042969 L 381.757812 194.042969 C 392.839844 194.042969 401.863281 203.066406 401.863281 214.152344 L 401.863281 221.820312 C 401.863281 232.917969 392.839844 241.929688 381.757812 241.929688 Z M 32.738281 265.320312 C 26.855469 265.320312 22.074219 270.101562 22.074219 275.976562 L 22.074219 283.351562 C 22.074219 301.398438 36.753906 316.089844 54.808594 316.089844 L 332.421875 316.089844 C 350.480469 316.089844 365.152344 301.398438 365.152344 283.351562 L 365.152344 275.976562 C 365.152344 270.101562 360.371094 265.320312 354.5 265.320312 Z M 332.429688 327.867188 L 54.8125 327.867188 C 30.269531 327.867188 10.304688 307.890625 10.304688 283.351562 L 10.304688 275.976562 C 10.304688 263.609375 20.371094 253.542969 32.742188 253.542969 L 354.511719 253.542969 C 366.871094 253.542969 376.9375 263.609375 376.9375 275.976562 L 376.9375 283.351562 C 376.9375 307.890625 356.984375 327.867188 332.433594 327.867188 " fill-opacity="1" fill-rule="nonzero"/></g><g clip-path="url(#ae933d8945)"><path fill="#f9943b" d="M 291.585938 106.847656 C 299.179688 106.847656 299.179688 95.058594 291.585938 95.058594 C 284.007812 95.058594 283.992188 106.847656 291.585938 106.847656 Z M 100.472656 105.027344 C 108.0625 105.027344 108.074219 93.230469 100.472656 93.230469 C 92.890625 93.230469 92.878906 105.027344 100.472656 105.027344 Z M 70.761719 149.84375 C 78.34375 149.84375 78.355469 138.046875 70.761719 138.046875 C 63.171875 138.046875 63.160156 149.84375 70.761719 149.84375 Z M 156.710938 125.871094 C 164.289062 125.871094 164.320312 114.082031 156.710938 114.082031 C 149.132812 114.082031 149.117188 125.871094 156.710938 125.871094 Z M 176.828125 77.125 C 184.421875 77.125 184.421875 65.332031 176.828125 65.332031 C 169.25 65.332031 169.234375 77.125 176.828125 77.125 Z M 278.332031 152.132812 C 285.925781 152.132812 285.9375 140.335938 278.332031 140.335938 C 270.75 140.335938 270.738281 152.132812 278.332031 152.132812 Z M 240.390625 89.929688 C 247.96875 89.929688 247.984375 78.136719 240.390625 78.136719 C 232.796875 78.136719 232.78125 89.929688 240.390625 89.929688 Z M 193.621094 59.261719 C 99.03125 59.261719 22.082031 106.675781 22.082031 164.960938 L 22.078125 170.027344 C 22.078125 175.90625 26.863281 180.691406 32.742188 180.691406 L 354.511719 180.691406 C 360.382812 180.691406 365.164062 175.90625 365.164062 170.027344 L 365.164062 164.960938 C 365.164062 106.675781 288.210938 59.261719 193.625 59.261719 Z M 354.503906 192.46875 L 32.738281 192.46875 C 20.371094 192.46875 10.304688 182.398438 10.304688 170.027344 L 10.304688 164.960938 C 10.304688 133.058594 29.742188 103.261719 65.027344 81.070312 C 99.46875 59.410156 145.128906 47.484375 193.621094 47.484375 C 242.113281 47.484375 287.777344 59.410156 322.214844 81.070312 C 357.507812 103.261719 376.933594 133.058594 376.933594 164.960938 L 376.933594 170.027344 C 376.933594 182.398438 366.867188 192.46875 354.503906 192.46875 Z M 385.394531 212.792969 C 386.175781 212.191406 385.910156 212.425781 385.042969 213 C 383.804688 213.808594 382.554688 214.589844 381.257812 215.3125 C 377.402344 217.417969 373.195312 218.976562 368.839844 219.683594 C 362.363281 220.742188 355.769531 219.773438 349.867188 216.902344 C 343.1875 213.664062 337.992188 208.289062 331.089844 205.34375 C 316.726562 199.191406 299.347656 202.195312 287.644531 212.601562 C 287.511719 212.707031 287.324219 212.839844 287.070312 213 C 285.835938 213.808594 284.585938 214.589844 283.289062 215.3125 C 279.433594 217.417969 275.210938 218.976562 270.867188 219.683594 C 264.394531 220.742188 257.800781 219.773438 251.898438 216.902344 C 245.21875 213.664062 240.007812 208.289062 233.121094 205.34375 C 218.757812 199.191406 201.375 202.195312 189.675781 212.601562 C 189.542969 212.707031 189.351562 212.839844 189.101562 213 C 187.867188 213.808594 186.601562 214.589844 185.304688 215.3125 C 181.449219 217.417969 177.242188 218.976562 172.898438 219.683594 C 166.425781 220.742188 159.816406 219.773438 153.914062 216.902344 C 147.234375 213.664062 142.039062 208.289062 135.152344 205.34375 C 120.777344 199.191406 103.394531 202.195312 91.707031 212.601562 C 91.570312 212.707031 91.378906 212.839844 91.125 213 C 89.886719 213.808594 88.636719 214.589844 87.332031 215.3125 C 83.480469 217.417969 79.261719 218.976562 74.921875 219.683594 C 68.449219 220.742188 61.84375 219.773438 55.945312 216.902344 C 49.269531 213.664062 44.066406 208.289062 37.175781 205.34375 C 22.710938 199.164062 5.1875 202.226562 -6.5 212.792969 C -12.136719 217.902344 -3.777344 226.203125 1.839844 221.125 C 5.414062 217.902344 11.421875 215.179688 16.621094 214.25 C 31.800781 211.511719 40.601562 223.273438 53.300781 228.589844 C 68.695312 235.023438 86.917969 231.402344 99.8125 221.125 C 103.390625 217.902344 109.398438 215.179688 114.59375 214.25 C 129.773438 211.511719 138.582031 223.273438 151.28125 228.589844 C 166.675781 235.023438 184.894531 231.402344 197.785156 221.125 C 201.363281 217.902344 207.367188 215.179688 212.574219 214.25 C 227.75 211.511719 236.550781 223.273438 249.25 228.589844 C 264.644531 235.023438 282.863281 231.402344 295.769531 221.125 C 299.347656 217.902344 305.335938 215.179688 310.546875 214.25 C 325.734375 211.511719 334.535156 223.273438 347.234375 228.589844 C 362.613281 235.023438 380.847656 231.402344 393.738281 221.125 C 399.667969 216.402344 391.28125 208.113281 385.394531 212.792969 Z M 5.480469 253.230469 C 0.890625 253.230469 -2.847656 256.96875 -2.847656 261.5625 L -2.847656 269.234375 C -2.847656 273.824219 0.890625 277.5625 5.480469 277.5625 L 381.757812 277.5625 C 386.351562 277.5625 390.089844 273.824219 390.089844 269.234375 L 390.089844 261.5625 C 390.089844 256.96875 386.351562 253.230469 381.757812 253.230469 Z M 381.757812 289.339844 L 5.480469 289.339844 C -5.601562 289.339844 -14.621094 280.332031 -14.621094 269.234375 L -14.621094 261.5625 C -14.621094 250.480469 -5.601562 241.453125 5.480469 241.453125 L 381.757812 241.453125 C 392.839844 241.453125 401.863281 250.480469 401.863281 261.5625 L 401.863281 269.234375 C 401.863281 280.332031 392.839844 289.339844 381.757812 289.339844 Z M 32.738281 312.730469 C 26.855469 312.730469 22.074219 317.515625 22.074219 323.390625 L 22.074219 330.765625 C 22.074219 348.8125 36.753906 363.503906 54.808594 363.503906 L 332.421875 363.503906 C 350.480469 363.503906 365.152344 348.8125 365.152344 330.765625 L 365.152344 323.390625 C 365.152344 317.515625 360.371094 312.730469 354.5 312.730469 Z M 332.429688 375.277344 L 54.8125 375.277344 C 30.269531 375.277344 10.304688 355.304688 10.304688 330.765625 L 10.304688 323.390625 C 10.304688 311.023438 20.371094 300.953125 32.742188 300.953125 L 354.511719 300.953125 C 366.871094 300.953125 376.9375 311.023438 376.9375 323.390625 L 376.9375 330.765625 C 376.9375 355.304688 356.984375 375.277344 332.433594 375.277344 " fill-opacity="1" fill-rule="nonzero"/></g></svg>