<svg xmlns="http://www.w3.org/2000/svg" xmlns:xlink="http://www.w3.org/1999/xlink" width="500" zoomAndPan="magnify" viewBox="0 0 375 374.999991" height="500" preserveAspectRatio="xMidYMid meet" version="1.0"><defs><g/><clipPath id="be253e4380"><path d="M 0 0.0703125 L 375 0.0703125 L 375 149.796875 L 0 149.796875 Z M 0 0.0703125 " clip-rule="nonzero"/></clipPath><clipPath id="6e37e802ed"><path d="M 0 292.742188 L 375 292.742188 L 375 374.449219 L 0 374.449219 Z M 0 292.742188 " clip-rule="nonzero"/></clipPath></defs><g fill="#5c0601" fill-opacity="1"><g transform="translate(22.594717, 286.601878)"><g><path d="M 27.003906 0 L 27.003906 -7.6875 L 13.878906 -7.6875 L 13.878906 -65.074219 L 24.378906 -65.074219 L 24.378906 -72.765625 L 13.878906 -72.765625 L 13.878906 -123.585938 L 27.003906 -123.585938 L 27.003906 -131.277344 L 5.625 -131.277344 L 5.625 0 Z M 27.003906 0 "/></g></g></g><g fill="#5c0601" fill-opacity="1"><g transform="translate(51.849513, 286.601878)"><g><path d="M 10.128906 0 L 12.316406 -41.070312 L 20.878906 -41.070312 L 23.066406 0 L 31.507812 0 L 22.066406 -131.277344 L 11.128906 -131.277344 L 1.6875 0 Z M 14.253906 -81.828125 C 14.753906 -92.332031 15.128906 -100.082031 15.691406 -111.023438 L 17.566406 -111.023438 C 18.128906 -100.082031 18.503906 -91.769531 18.941406 -81.828125 L 20.503906 -48.382812 L 12.691406 -48.382812 Z M 14.253906 -81.828125 "/></g></g></g><g fill="#5c0601" fill-opacity="1"><g transform="translate(85.042462, 286.601878)"><g><path d="M 18.191406 0 L 18.191406 -123.585938 L 27.191406 -123.585938 L 27.191406 -131.277344 L 0.9375 -131.277344 L 0.9375 -123.585938 L 9.941406 -123.585938 L 9.941406 0 Z M 18.191406 0 "/></g></g></g><g fill="#5c0601" fill-opacity="1"><g transform="translate(113.172081, 286.601878)"><g/></g></g><g fill="#5c0601" fill-opacity="1"><g transform="translate(130.674952, 286.601878)"><g><path d="M 18.003906 0 C 28.316406 0 33.382812 -5.0625 33.382812 -15.941406 L 33.382812 -55.699219 C 33.382812 -62.824219 29.820312 -66.386719 24.378906 -67.699219 L 24.378906 -69.578125 C 29.820312 -70.890625 33.382812 -74.453125 33.382812 -81.578125 L 33.382812 -115.335938 C 33.382812 -126.214844 28.316406 -131.277344 18.003906 -131.277344 L 5.625 -131.277344 L 5.625 0 Z M 13.878906 -123.585938 L 18.003906 -123.585938 C 22.878906 -123.585938 25.128906 -121.335938 25.128906 -115.335938 L 25.128906 -81.578125 C 25.128906 -74.828125 22.878906 -72.578125 18.003906 -72.578125 L 13.878906 -72.578125 Z M 13.878906 -64.699219 L 18.003906 -64.699219 C 22.878906 -64.699219 25.128906 -62.449219 25.128906 -55.699219 L 25.128906 -15.941406 C 25.128906 -9.941406 22.878906 -7.6875 18.003906 -7.6875 L 13.878906 -7.6875 Z M 13.878906 -64.699219 "/></g></g></g><g fill="#5c0601" fill-opacity="1"><g transform="translate(169.368803, 286.601878)"><g><path d="M 5.4375 -14.253906 C 5.4375 -4.3125 10.503906 0.75 19.316406 0.75 C 28.128906 0.75 33.195312 -4.3125 33.195312 -14.253906 L 33.195312 -131.277344 L 24.941406 -131.277344 L 24.941406 -14.253906 C 24.941406 -9.1875 22.691406 -6.9375 19.316406 -6.9375 C 15.941406 -6.9375 13.691406 -9.1875 13.691406 -14.253906 L 13.691406 -131.277344 L 5.4375 -131.277344 Z M 5.4375 -14.253906 "/></g></g></g><g fill="#5c0601" fill-opacity="1"><g transform="translate(208.000148, 286.601878)"><g><path d="M 13.878906 0 L 13.878906 -61.574219 L 18.003906 -61.574219 C 22.878906 -61.574219 25.128906 -59.324219 25.128906 -52.574219 L 25.128906 -17.628906 C 25.128906 -9.5625 25.691406 -3.75 27.753906 0 L 36.382812 0 C 34.320312 -3.75 33.382812 -9.375 33.382812 -17.628906 L 33.382812 -52.574219 C 33.382812 -59.699219 29.820312 -63.261719 24.378906 -64.574219 L 24.378906 -66.449219 C 29.820312 -67.761719 33.382812 -71.328125 33.382812 -78.453125 L 33.382812 -115.335938 C 33.382812 -126.214844 28.316406 -131.277344 18.003906 -131.277344 L 5.625 -131.277344 L 5.625 0 Z M 13.878906 -123.585938 L 18.003906 -123.585938 C 22.878906 -123.585938 25.128906 -121.335938 25.128906 -115.335938 L 25.128906 -78.453125 C 25.128906 -71.703125 22.878906 -69.453125 18.003906 -69.453125 L 13.878906 -69.453125 Z M 13.878906 -123.585938 "/></g></g></g><g fill="#5c0601" fill-opacity="1"><g transform="translate(246.443953, 286.601878)"><g><path d="M 5.25 -12.941406 C 5.25 -3.1875 9.1875 0.75 14.628906 0.75 C 19.691406 0.75 22.316406 -1.875 23.253906 -6.75 L 25.128906 -6.75 L 27.378906 0 L 33.007812 0 L 33.007812 -72.765625 L 18.941406 -72.765625 L 18.941406 -65.074219 L 24.753906 -65.074219 L 24.753906 -15.003906 C 24.753906 -9.5625 22.128906 -6.9375 18.753906 -6.9375 C 15.566406 -6.9375 13.503906 -9 13.503906 -14.066406 L 13.503906 -117.023438 C 13.503906 -122.085938 15.753906 -124.335938 19.128906 -124.335938 C 22.503906 -124.335938 24.753906 -122.085938 24.753906 -117.023438 L 24.753906 -82.515625 L 33.007812 -83.453125 L 33.007812 -117.023438 C 33.007812 -126.964844 27.941406 -132.027344 19.128906 -132.027344 C 10.316406 -132.027344 5.25 -126.964844 5.25 -117.023438 Z M 5.25 -12.941406 "/></g></g></g><g fill="#5c0601" fill-opacity="1"><g transform="translate(284.70023, 286.601878)"><g><path d="M 27.003906 0 L 27.003906 -7.6875 L 13.878906 -7.6875 L 13.878906 -65.074219 L 24.378906 -65.074219 L 24.378906 -72.765625 L 13.878906 -72.765625 L 13.878906 -123.585938 L 27.003906 -123.585938 L 27.003906 -131.277344 L 5.625 -131.277344 L 5.625 0 Z M 27.003906 0 "/></g></g></g><g fill="#5c0601" fill-opacity="1"><g transform="translate(313.955013, 286.601878)"><g><path d="M 13.878906 0 L 13.878906 -61.574219 L 18.003906 -61.574219 C 22.878906 -61.574219 25.128906 -59.324219 25.128906 -52.574219 L 25.128906 -17.628906 C 25.128906 -9.5625 25.691406 -3.75 27.753906 0 L 36.382812 0 C 34.320312 -3.75 33.382812 -9.375 33.382812 -17.628906 L 33.382812 -52.574219 C 33.382812 -59.699219 29.820312 -63.261719 24.378906 -64.574219 L 24.378906 -66.449219 C 29.820312 -67.761719 33.382812 -71.328125 33.382812 -78.453125 L 33.382812 -115.335938 C 33.382812 -126.214844 28.316406 -131.277344 18.003906 -131.277344 L 5.625 -131.277344 L 5.625 0 Z M 13.878906 -123.585938 L 18.003906 -123.585938 C 22.878906 -123.585938 25.128906 -121.335938 25.128906 -115.335938 L 25.128906 -78.453125 C 25.128906 -71.703125 22.878906 -69.453125 18.003906 -69.453125 L 13.878906 -69.453125 Z M 13.878906 -123.585938 "/></g></g></g><g clip-path="url(#be253e4380)"><path fill="#fcdd05" d="M 285.660156 59.4375 C 293.253906 59.4375 293.253906 47.648438 285.660156 47.648438 C 278.078125 47.648438 278.066406 59.4375 285.660156 59.4375 Z M 94.546875 57.613281 C 102.136719 57.613281 102.148438 45.820312 94.546875 45.820312 C 86.964844 45.820312 86.953125 57.613281 94.546875 57.613281 Z M 64.832031 102.429688 C 72.414062 102.429688 72.425781 90.636719 64.832031 90.636719 C 57.242188 90.636719 57.234375 102.429688 64.832031 102.429688 Z M 150.785156 78.457031 C 158.363281 78.457031 158.394531 66.667969 150.785156 66.667969 C 143.207031 66.667969 143.191406 78.457031 150.785156 78.457031 Z M 170.902344 29.714844 C 178.496094 29.714844 178.496094 17.917969 170.902344 17.917969 C 163.324219 17.917969 163.308594 29.714844 170.902344 29.714844 Z M 272.402344 104.71875 C 279.996094 104.71875 280.011719 92.925781 272.402344 92.925781 C 264.824219 92.925781 264.808594 104.71875 272.402344 104.71875 Z M 234.464844 42.519531 C 242.042969 42.519531 242.058594 30.726562 234.464844 30.726562 C 226.871094 30.726562 226.855469 42.519531 234.464844 42.519531 Z M 187.695312 11.847656 C 93.105469 11.847656 16.15625 59.261719 16.15625 117.546875 L 16.152344 122.613281 C 16.152344 128.496094 20.9375 133.28125 26.816406 133.28125 L 348.582031 133.28125 C 354.457031 133.28125 359.238281 128.496094 359.238281 122.613281 L 359.238281 117.546875 C 359.238281 59.261719 282.285156 11.847656 187.699219 11.847656 Z M 348.578125 145.054688 L 26.8125 145.054688 C 14.445312 145.054688 4.378906 134.988281 4.378906 122.613281 L 4.378906 117.546875 C 4.378906 85.644531 23.816406 55.847656 59.101562 33.65625 C 93.539062 11.996094 139.203125 0.0703125 187.695312 0.0703125 C 236.1875 0.0703125 281.851562 11.996094 316.289062 33.65625 C 351.578125 55.847656 371.003906 85.644531 371.003906 117.546875 L 371.003906 122.613281 C 371.003906 134.988281 360.9375 145.054688 348.578125 145.054688 Z M 379.46875 165.382812 C 380.246094 164.777344 379.984375 165.011719 379.113281 165.585938 C 377.878906 166.398438 376.628906 167.175781 375.332031 167.898438 C 371.476562 170.003906 367.265625 171.5625 362.910156 172.269531 C 356.4375 173.332031 349.84375 172.359375 343.941406 169.488281 C 337.261719 166.25 332.066406 160.878906 325.164062 157.933594 C 310.800781 151.78125 293.417969 154.78125 281.71875 165.191406 C 281.585938 165.292969 281.394531 165.425781 281.144531 165.585938 C 279.910156 166.398438 278.65625 167.175781 277.363281 167.898438 C 273.507812 170.003906 269.285156 171.5625 264.941406 172.269531 C 258.464844 173.332031 251.875 172.359375 245.972656 169.488281 C 239.289062 166.25 234.082031 160.878906 227.195312 157.933594 C 212.832031 151.78125 195.449219 154.78125 183.75 165.191406 C 183.617188 165.292969 183.425781 165.425781 183.175781 165.585938 C 181.941406 166.398438 180.675781 167.175781 179.378906 167.898438 C 175.523438 170.003906 171.3125 171.5625 166.972656 172.269531 C 160.496094 173.332031 153.890625 172.359375 147.988281 169.488281 C 141.308594 166.25 136.113281 160.878906 129.222656 157.933594 C 114.851562 151.78125 97.46875 154.78125 85.78125 165.191406 C 85.640625 165.292969 85.453125 165.425781 85.199219 165.585938 C 83.957031 166.398438 82.710938 167.175781 81.40625 167.898438 C 77.554688 170.003906 73.335938 171.5625 68.996094 172.269531 C 62.519531 173.332031 55.917969 172.359375 50.015625 169.488281 C 43.34375 166.25 38.140625 160.878906 31.246094 157.933594 C 16.785156 151.75 -0.738281 154.8125 -12.425781 165.382812 C -18.0625 170.488281 -9.707031 178.792969 -4.089844 173.714844 C -0.515625 170.488281 5.492188 167.765625 10.695312 166.839844 C 25.875 164.101562 34.675781 175.863281 47.371094 181.175781 C 62.769531 187.609375 80.992188 183.988281 93.886719 173.714844 C 97.460938 170.488281 103.46875 167.765625 108.667969 166.839844 C 123.847656 164.101562 132.652344 175.863281 145.355469 181.175781 C 160.746094 187.609375 178.96875 183.988281 191.859375 173.714844 C 195.433594 170.488281 201.4375 167.765625 206.648438 166.839844 C 221.820312 164.101562 230.621094 175.863281 243.324219 181.175781 C 258.71875 187.609375 276.9375 183.988281 289.84375 173.714844 C 293.417969 170.488281 299.410156 167.765625 304.617188 166.839844 C 319.804688 164.101562 328.605469 175.863281 341.308594 181.175781 C 356.6875 187.609375 374.921875 183.988281 387.8125 173.714844 C 393.742188 168.988281 385.355469 160.699219 379.46875 165.382812 Z M -0.445312 205.820312 C -5.039062 205.820312 -8.773438 209.558594 -8.773438 214.152344 L -8.773438 221.820312 C -8.773438 226.414062 -5.039062 230.152344 -0.445312 230.152344 L 375.832031 230.152344 C 380.425781 230.152344 384.164062 226.414062 384.164062 221.820312 L 384.164062 214.152344 C 384.164062 209.558594 380.425781 205.820312 375.832031 205.820312 Z M 375.832031 241.929688 L -0.445312 241.929688 C -11.527344 241.929688 -20.546875 232.917969 -20.546875 221.820312 L -20.546875 214.152344 C -20.546875 203.066406 -11.527344 194.042969 -0.445312 194.042969 L 375.832031 194.042969 C 386.914062 194.042969 395.9375 203.066406 395.9375 214.152344 L 395.9375 221.820312 C 395.9375 232.917969 386.914062 241.929688 375.832031 241.929688 Z M 26.8125 265.320312 C 20.929688 265.320312 16.148438 270.101562 16.148438 275.976562 L 16.148438 283.351562 C 16.148438 301.398438 30.828125 316.089844 48.878906 316.089844 L 326.496094 316.089844 C 344.554688 316.089844 359.226562 301.398438 359.226562 283.351562 L 359.226562 275.976562 C 359.226562 270.101562 354.441406 265.320312 348.570312 265.320312 Z M 326.503906 327.867188 L 48.886719 327.867188 C 24.34375 327.867188 4.378906 307.890625 4.378906 283.351562 L 4.378906 275.976562 C 4.378906 263.609375 14.445312 253.542969 26.816406 253.542969 L 348.582031 253.542969 C 360.945312 253.542969 371.011719 263.609375 371.011719 275.976562 L 371.011719 283.351562 C 371.011719 307.890625 351.054688 327.867188 326.507812 327.867188 " fill-opacity="1" fill-rule="nonzero"/></g><g clip-path="url(#6e37e802ed)"><path fill="#fcdd05" d="M 285.660156 106.847656 C 293.253906 106.847656 293.253906 95.058594 285.660156 95.058594 C 278.078125 95.058594 278.066406 106.847656 285.660156 106.847656 Z M 94.546875 105.027344 C 102.136719 105.027344 102.148438 93.230469 94.546875 93.230469 C 86.964844 93.230469 86.953125 105.027344 94.546875 105.027344 Z M 64.832031 149.84375 C 72.414062 149.84375 72.425781 138.046875 64.832031 138.046875 C 57.242188 138.046875 57.234375 149.84375 64.832031 149.84375 Z M 150.785156 125.871094 C 158.363281 125.871094 158.394531 114.082031 150.785156 114.082031 C 143.207031 114.082031 143.191406 125.871094 150.785156 125.871094 Z M 170.902344 77.125 C 178.496094 77.125 178.496094 65.332031 170.902344 65.332031 C 163.324219 65.332031 163.308594 77.125 170.902344 77.125 Z M 272.402344 152.132812 C 279.996094 152.132812 280.011719 140.335938 272.402344 140.335938 C 264.824219 140.335938 264.808594 152.132812 272.402344 152.132812 Z M 234.464844 89.929688 C 242.042969 89.929688 242.058594 78.136719 234.464844 78.136719 C 226.871094 78.136719 226.855469 89.929688 234.464844 89.929688 Z M 187.695312 59.261719 C 93.105469 59.261719 16.15625 106.675781 16.15625 164.960938 L 16.152344 170.027344 C 16.152344 175.90625 20.9375 180.691406 26.816406 180.691406 L 348.582031 180.691406 C 354.457031 180.691406 359.238281 175.90625 359.238281 170.027344 L 359.238281 164.960938 C 359.238281 106.675781 282.285156 59.261719 187.699219 59.261719 Z M 348.578125 192.46875 L 26.8125 192.46875 C 14.445312 192.46875 4.378906 182.398438 4.378906 170.027344 L 4.378906 164.960938 C 4.378906 133.058594 23.816406 103.261719 59.101562 81.070312 C 93.539062 59.410156 139.203125 47.484375 187.695312 47.484375 C 236.1875 47.484375 281.851562 59.410156 316.289062 81.070312 C 351.578125 103.261719 371.003906 133.058594 371.003906 164.960938 L 371.003906 170.027344 C 371.003906 182.398438 360.9375 192.46875 348.578125 192.46875 Z M 379.46875 212.792969 C 380.246094 212.191406 379.984375 212.425781 379.113281 213 C 377.878906 213.808594 376.628906 214.589844 375.332031 215.3125 C 371.476562 217.417969 367.265625 218.976562 362.910156 219.683594 C 356.4375 220.742188 349.84375 219.773438 343.941406 216.902344 C 337.261719 213.664062 332.066406 208.289062 325.164062 205.347656 C 310.800781 199.191406 293.417969 202.195312 281.71875 212.601562 C 281.585938 212.707031 281.394531 212.839844 281.144531 213 C 279.910156 213.808594 278.65625 214.589844 277.363281 215.3125 C 273.507812 217.417969 269.285156 218.976562 264.941406 219.683594 C 258.464844 220.742188 251.875 219.773438 245.972656 216.902344 C 239.289062 213.664062 234.082031 208.289062 227.195312 205.347656 C 212.832031 199.191406 195.449219 202.195312 183.75 212.601562 C 183.617188 212.707031 183.425781 212.839844 183.175781 213 C 181.941406 213.808594 180.675781 214.589844 179.378906 215.3125 C 175.523438 217.417969 171.3125 218.976562 166.972656 219.683594 C 160.496094 220.742188 153.890625 219.773438 147.988281 216.902344 C 141.308594 213.664062 136.113281 208.289062 129.222656 205.347656 C 114.851562 199.191406 97.46875 202.195312 85.78125 212.601562 C 85.640625 212.707031 85.453125 212.839844 85.199219 213 C 83.957031 213.808594 82.710938 214.589844 81.40625 215.3125 C 77.554688 217.417969 73.335938 218.976562 68.996094 219.683594 C 62.519531 220.742188 55.917969 219.773438 50.015625 216.902344 C 43.34375 213.664062 38.140625 208.289062 31.246094 205.347656 C 16.785156 199.164062 -0.738281 202.226562 -12.425781 212.792969 C -18.0625 217.902344 -9.707031 226.203125 -4.089844 221.125 C -0.515625 217.902344 5.492188 215.179688 10.695312 214.25 C 25.875 211.511719 34.675781 223.273438 47.371094 228.589844 C 62.769531 235.023438 80.992188 231.402344 93.886719 221.125 C 97.460938 217.902344 103.46875 215.179688 108.667969 214.25 C 123.847656 211.511719 132.652344 223.273438 145.355469 228.589844 C 160.746094 235.023438 178.96875 231.402344 191.859375 221.125 C 195.433594 217.902344 201.4375 215.179688 206.648438 214.25 C 221.820312 211.511719 230.621094 223.273438 243.324219 228.589844 C 258.71875 235.023438 276.9375 231.402344 289.84375 221.125 C 293.417969 217.902344 299.410156 215.179688 304.617188 214.25 C 319.804688 211.511719 328.605469 223.273438 341.308594 228.589844 C 356.6875 235.023438 374.921875 231.402344 387.8125 221.125 C 393.742188 216.402344 385.355469 208.113281 379.46875 212.792969 Z M -0.445312 253.230469 C -5.039062 253.230469 -8.773438 256.96875 -8.773438 261.5625 L -8.773438 269.234375 C -8.773438 273.824219 -5.039062 277.5625 -0.445312 277.5625 L 375.832031 277.5625 C 380.425781 277.5625 384.164062 273.824219 384.164062 269.234375 L 384.164062 261.5625 C 384.164062 256.96875 380.425781 253.230469 375.832031 253.230469 Z M 375.832031 289.339844 L -0.445312 289.339844 C -11.527344 289.339844 -20.546875 280.332031 -20.546875 269.234375 L -20.546875 261.5625 C -20.546875 250.480469 -11.527344 241.453125 -0.445312 241.453125 L 375.832031 241.453125 C 386.914062 241.453125 395.9375 250.480469 395.9375 261.5625 L 395.9375 269.234375 C 395.9375 280.332031 386.914062 289.339844 375.832031 289.339844 Z M 26.8125 312.730469 C 20.929688 312.730469 16.148438 317.515625 16.148438 323.390625 L 16.148438 330.765625 C 16.148438 348.8125 30.828125 363.503906 48.878906 363.503906 L 326.496094 363.503906 C 344.554688 363.503906 359.226562 348.8125 359.226562 330.765625 L 359.226562 323.390625 C 359.226562 317.515625 354.441406 312.730469 348.570312 312.730469 Z M 326.503906 375.277344 L 48.886719 375.277344 C 24.34375 375.277344 4.378906 355.304688 4.378906 330.765625 L 4.378906 323.390625 C 4.378906 311.023438 14.445312 300.957031 26.816406 300.957031 L 348.582031 300.957031 C 360.945312 300.957031 371.011719 311.023438 371.011719 323.390625 L 371.011719 330.765625 C 371.011719 355.304688 351.054688 375.277344 326.507812 375.277344 " fill-opacity="1" fill-rule="nonzero"/></g></svg>